# xmcd
#
# Track frame offsets:
#	150
#	14691
#	30931
#	47391
#	58283
#	69143
#	83095
#	99937
#	115533
#	129419
#	141946
#	152241
#	162135
#	176654
#	188272
#
# Disc length: 2649 seconds
#
# Revision: 2
# Processed by: cddbd v1.5.1PL2 Copyright (c) Steve Scherf et al.
# Submitted via: audiograbber 1.83.01
#
DISCID=b00a570f
DTITLE=Various Artist - Classic Country Country Life CD1
DYEAR=2004
DGENRE=Country
TTITLE0=Waylon Jennings - Are You Ready For The Country
TTITLE1=Eddie Rabbitt - Rocky Mountain Music
TTITLE2=Marty Stuart - Western Girls
TTITLE3=Tammy Wynette and George Jones - (We're Not) The Jet Set
TTITLE4=Charley Pride - Mississippi Cotton Picking Delta Town
TTITLE5=Dolly Parton - My Tennessee Mountain Home
TTITLE6=Ronnie Milsap - Smoky Mountain Rain
TTITLE7=Earl Thomas Conley - Smoky Mountain Memories
TTITLE8=Crystal Gayle - River Road
TTITLE9=Merle Haggard - The Roots Of My Raisins
TTITLE10=Don Gibson - Country Green
TTITLE11=Tom T. Hall - Country Is
TTITLE12=Travis Tritt - Country Club
TTITLE13=George Hamilton IV - She's A Little Bit Country
TTITLE14=Loretta Lynn - You're Looking At Country
EXTD=Classic Country Country Life CD1
EXTT0=
EXTT1=
EXTT2=
EXTT3=
EXTT4=
EXTT5=
EXTT6=
EXTT7=
EXTT8=
EXTT9=
EXTT10=
EXTT11=
EXTT12=
EXTT13=
EXTT14=
PLAYORDER=
